HIERARCHY
ROOT root
{
	OFFSET 0.000000 0.000000 0.000000
	CHANNELS 6 Xposition Yposition Zposition Zrotation Yrotation Xrotation
	JOINT lhip
	{
		OFFSET 0.058581 -0.082280 -0.017664
		CHANNELS 3 Zrotation Yrotation Xrotation
		JOINT lknee
		{
			OFFSET 0.043451 -0.386469 0.008037
			CHANNELS 3 Zrotation Yrotation Xrotation
			JOINT lankle
			{
				OFFSET -0.014790 -0.426874 -0.037428
				CHANNELS 3 Zrotation Yrotation Xrotation
				JOINT ltoe
				{
					OFFSET 0.041054 -0.060286 0.122042
					CHANNELS 3 Zrotation Yrotation Xrotation
					End Site
					{
						OFFSET 0.000000 0.000000 0.000000
					}
				}
			}
		}
	}
	JOINT rhip
	{
		OFFSET -0.060310 -0.090513 -0.013543
		CHANNELS 3 Zrotation Yrotation Xrotation
		JOINT rknee
		{
			OFFSET -0.043257 -0.383688 -0.004843
			CHANNELS 3 Zrotation Yrotation Xrotation
			JOINT rankle
			{
				OFFSET 0.019056 -0.420046 -0.034562
				CHANNELS 3 Zrotation Yrotation Xrotation
				JOINT rtoe
				{
					OFFSET -0.034840 -0.062106 0.130323
					CHANNELS 3 Zrotation Yrotation Xrotation
					End Site
					{
						OFFSET 0.000000 0.000000 0.000000
					}
				}
			}
		}
	}
	JOINT lowerback
	{
		OFFSET 0.004439 0.124404 -0.038385
		CHANNELS 3 Zrotation Yrotation Xrotation
		JOINT upperback
		{
			OFFSET 0.004488 0.137956 0.026820
			CHANNELS 3 Zrotation Yrotation Xrotation
			JOINT chest
			{
				OFFSET -0.002265 0.056032 0.002855
				CHANNELS 3 Zrotation Yrotation Xrotation
				JOINT lowerneck
				{
					OFFSET -0.013390 0.211636 -0.033468
					CHANNELS 3 Zrotation Yrotation Xrotation
					JOINT upperneck
					{
						OFFSET 0.010113 0.088937 0.050410
						CHANNELS 3 Zrotation Yrotation Xrotation
						End Site
						{
							OFFSET 0.000000 0.000000 0.000000
						}
					}
				}
				JOINT lclavicle
				{
					OFFSET 0.071702 0.114000 -0.018898
					CHANNELS 3 Zrotation Yrotation Xrotation
					JOINT lshoulder
					{
						OFFSET 0.122921 0.045205 -0.019046
						CHANNELS 3 Zrotation Yrotation Xrotation
						JOINT lelbow
						{
							OFFSET 0.255332 -0.015649 -0.022946
							CHANNELS 3 Zrotation Yrotation Xrotation
							JOINT lwrist
							{
								OFFSET 0.265709 0.012698 -0.007375
								CHANNELS 3 Zrotation Yrotation Xrotation
								End Site
								{
									OFFSET 0.000000 0.000000 0.000000
								}
							}
						}
					}
				}
				JOINT rclavicle
				{
					OFFSET -0.082954 0.112472 -0.023707
					CHANNELS 3 Zrotation Yrotation Xrotation
					JOINT rshoulder
					{
						OFFSET -0.113228 0.046853 -0.008472
						CHANNELS 3 Zrotation Yrotation Xrotation
						JOINT relbow
						{
							OFFSET -0.260127 -0.014369 -0.031269
							CHANNELS 3 Zrotation Yrotation Xrotation
							JOINT rwrist
							{
								OFFSET -0.269108 0.006794 -0.006027
								CHANNELS 3 Zrotation Yrotation Xrotation
								End Site
								{
									OFFSET 0.000000 0.000000 0.000000
								}
							}
						}
					}
				}
			}
		}
	}
}
MOTION
Frames: 10
Frame Time: 0.033333
-0.406995 2.999479 0.995193 0.960195 0.309912 85.065595 3.619038 6.207008 9.952660 -3.247038 1.274805 -3.929727 3.324072 13.624884 -9.922857 0.000000 -0.000000 0.000000 -3.518307 -4.959000 -1.006683 1.173512 -7.598919 18.250199 4.145061 -8.408041 -10.790788 0.000000 -0.000000 0.000000 0.654360 -1.169222 1.888964 0.678676 -2.294846 9.658955 -0.721524 -1.858408 -0.351943 3.871712 1.568362 2.374399 1.595456 -0.029694 -0.202173 -26.939135 4.517880 1.600392 -62.457805 -4.390894 7.661657 16.010860 -32.996214 0.145986 -5.878580 -7.150517 2.960187 24.674217 2.245106 3.326528 60.881969 5.041803 11.634480 -13.411605 27.068226 -1.958710 5.971585 8.610870 -0.097678 
-0.406866 2.999431 0.995212 0.889066 0.295567 85.092818 3.583270 6.210012 9.957569 -3.253209 1.229271 -3.974390 3.506007 13.738553 -9.858318 0.000000 -0.000000 0.000000 -3.532045 -4.837364 -1.001411 1.273667 -7.356306 18.162788 4.458857 -8.746827 -10.870557 0.000000 -0.000000 0.000000 0.612949 -1.105276 1.871942 0.686008 -2.341607 9.621772 -0.706614 -1.840141 -0.376763 3.790578 1.513182 2.328084 1.633129 0.062349 -0.113435 -26.899238 4.512781 1.708626 -62.479072 -4.451508 7.830510 16.111201 -32.990365 0.195974 -5.771274 -7.066448 2.691000 24.623226 2.299646 3.378487 60.921579 5.025740 11.775066 -13.488971 27.064878 -1.993460 5.995172 8.558881 -0.354146 
-0.406910 2.998985 0.995235 0.802101 0.309377 85.070039 3.630429 6.259082 10.083310 -3.295711 1.182944 -4.079575 3.555451 13.793552 -9.869991 0.000000 -0.000000 0.000000 -3.513922 -4.843097 -0.910557 1.293529 -7.262362 18.056496 4.481177 -8.760588 -10.885961 0.000000 -0.000000 0.000000 0.595361 -1.074830 1.843886 0.669108 -2.320748 9.575479 -0.691408 -1.833420 -0.346719 3.760424 1.457821 2.271874 1.605898 0.132555 -0.042388 -26.851546 4.504653 1.740515 -62.461466 -4.490322 7.854580 16.006502 -32.904103 0.393424 -5.627547 -7.054498 2.559844 24.580171 2.339005 3.397365 60.904506 5.108809 11.873415 -13.259987 26.891584 -1.770539 5.904523 8.539656 -0.660810 
-0.406985 2.998498 0.995363 0.719114 0.323296 85.034332 3.671050 6.303124 10.199311 -3.332827 1.182657 -4.128426 3.584613 13.819171 -9.921783 0.000000 -0.000000 0.000000 -3.498155 -4.853160 -0.830624 1.296790 -7.201392 17.990868 4.485407 -8.719151 -10.871429 0.000000 -0.000000 0.000000 0.570686 -1.031677 1.813748 0.650770 -2.301360 9.604652 -0.693911 -1.833894 -0.355969 3.784422 1.468692 2.206531 1.580599 0.154123 -0.034133 -26.832171 4.504331 1.731847 -62.409270 -4.499745 7.819538 15.886053 -32.868044 0.494208 -5.656981 -7.063948 2.620694 24.539096 2.364479 3.389649 60.983890 5.091206 11.915342 -13.212744 26.867935 -1.679319 5.930738 8.537620 -0.664415 
-0.406954 2.998398 0.995421 0.691926 0.330466 85.038441 3.669349 6.308343 10.202448 -3.331217 1.191539 -4.126663 3.596174 13.837619 -9.936783 0.000000 -0.000000 0.000000 -3.490832 -4.837079 -0.839321 1.296386 -7.191950 17.990345 4.487996 -8.713312 -10.867507 0.000000 -0.000000 0.000000 0.564434 -1.032724 1.833207 0.633201 -2.290570 9.589927 -0.694740 -1.832262 -0.374928 3.767152 1.483580 2.182613 1.576038 0.185941 -0.073944 -26.826785 4.475325 1.744111 -62.382769 -4.489082 7.819849 15.864148 -32.870841 0.514437 -5.671842 -7.075512 2.648067 24.503796 2.396699 3.399169 61.034645 5.089621 11.926132 -13.199529 26.873843 -1.633199 5.939304 8.528613 -0.671083 
-0.406888 2.998305 0.995447 0.651558 0.336169 85.048553 3.663954 6.320491 10.211398 -3.323445 1.203789 -4.143065 3.607663 13.858495 -9.933761 0.000000 -0.000000 0.000000 -3.481203 -4.819903 -0.857996 1.286959 -7.179376 18.002568 4.501604 -8.709296 -10.863318 0.000000 -0.000000 0.000000 0.555451 -1.030302 1.862463 0.605536 -2.272779 9.573754 -0.694671 -1.831827 -0.382197 3.724520 1.521472 2.165989 1.585628 0.239589 -0.173636 -26.817105 4.414426 1.779763 -62.362629 -4.465343 7.817454 15.875025 -32.909368 0.507815 -5.679547 -7.092150 2.634297 24.465347 2.458777 3.426729 61.077434 5.096899 11.932118 -13.181927 26.899563 -1.613077 5.941782 8.520308 -0.726321 
-0.406827 2.998205 0.995490 0.630600 0.342048 85.073780 3.653811 6.317878 10.188688 -3.310492 1.215888 -4.137940 3.606684 13.878983 -9.930976 0.000000 -0.000000 0.000000 -3.471180 -4.798663 -0.883920 1.283222 -7.171745 17.998601 4.521336 -8.723876 -10.852175 0.000000 -0.000000 0.000000 0.533467 -1.028447 1.888626 0.579857 -2.253543 9.530866 -0.689671 -1.822785 -0.380733 3.694495 1.550817 2.169387 1.608001 0.284934 -0.216883 -26.776335 4.367284 1.806007 -62.384698 -4.450052 7.839695 15.860054 -32.917340 0.532415 -5.663301 -7.113678 2.600017 24.423797 2.507437 3.453519 61.117991 5.098083 11.953563 -13.168182 26.908181 -1.598865 5.879524 8.532659 -0.786693 
-0.406764 2.998043 0.995561 0.632071 0.350194 85.110827 3.650368 6.306432 10.165442 -3.306584 1.216987 -4.150721 3.601898 13.888285 -9.929110 0.000000 -0.000000 0.000000 -3.461705 -4.798902 -0.903752 1.284886 -7.171261 17.971568 4.525153 -8.731566 -10.842495 0.000000 -0.000000 0.000000 0.520214 -1.029723 1.897413 0.553343 -2.247563 9.487115 -0.699581 -1.812300 -0.396607 3.680615 1.567817 2.171136 1.623899 0.326939 -0.195430 -26.761807 4.359015 1.819192 -62.371087 -4.431263 7.852904 15.788959 -32.903186 0.586244 -5.621140 -7.124145 2.590541 24.402891 2.529946 3.470836 61.162541 5.091538 11.968872 -13.173379 26.880690 -1.591125 5.709390 8.543458 -0.775271 
-0.406682 2.997910 0.995666 0.615196 0.356115 85.135935 3.648620 6.330525 10.179627 -3.307969 1.213028 -4.192716 3.617552 13.895433 -9.946074 0.000000 -0.000000 0.000000 -3.462102 -4.815534 -0.913805 1.286952 -7.161360 17.955983 4.516339 -8.702374 -10.850954 0.000000 -0.000000 0.000000 0.522981 -1.015527 1.907664 0.532444 -2.228173 9.479674 -0.730006 -1.808051 -0.427051 3.683568 1.547804 2.162127 1.614175 0.350843 -0.182075 -26.814918 4.369325 1.792833 -62.305902 -4.417587 7.859781 15.720363 -32.848958 0.611151 -5.494730 -7.137220 2.652175 24.429957 2.507958 3.441503 61.178582 5.099124 11.953335 -13.171530 26.826968 -1.608197 5.414921 8.544761 -0.668501 
-0.406565 2.997639 0.995704 0.592064 0.357759 85.177028 3.631815 6.343816 10.186271 -3.296614 1.217843 -4.244948 3.624240 13.911534 -9.957087 0.000000 -0.000000 0.000000 -3.459806 -4.814327 -0.938522 1.278013 -7.147532 17.948124 4.527249 -8.691175 -10.856131 0.000000 -0.000000 0.000000 0.528405 -1.001606 1.887927 0.499349 -2.199791 9.476466 -0.764548 -1.803377 -0.440361 3.662697 1.548907 2.167922 1.604611 0.366187 -0.188008 -26.830439 4.362422 1.816122 -62.286696 -4.418227 7.869466 15.682769 -32.810389 0.658902 -5.356848 -7.135228 2.692023 24.435722 2.523598 3.430016 61.216090 5.127769 11.952398 -13.198318 26.780464 -1.621421 5.092270 8.542137 -0.609164 
